G04 (created by PCBNEW (2013-june-11)-stable) date Mon 30 Oct 2017 03:43:58 PM CET*
%MOIN*%
G04 Gerber Fmt 3.4, Leading zero omitted, Abs format*
%FSLAX34Y34*%
G01*
G70*
G90*
G04 APERTURE LIST*
%ADD10C,0.00590551*%
%ADD11R,0.19685X0.0589*%
%ADD12R,0.0984252X0.0275*%
%ADD13C,0.038189*%
%ADD14C,0.01*%
%ADD15C,0.0011811*%
G04 APERTURE END LIST*
G54D10*
G54D11*
X71292Y-60501D03*
X71292Y-57272D03*
G54D12*
X70799Y-58887D03*
G54D13*
X72731Y-60602D03*
X72731Y-57137D03*
G54D14*
X71292Y-60501D02*
X71392Y-60602D01*
X71392Y-60602D02*
X72731Y-60602D01*
G54D10*
G36*
X72926Y-60608D02*
X72877Y-60608D01*
X72554Y-60684D01*
X72291Y-60684D01*
X72291Y-61068D01*
X70315Y-61068D01*
X70315Y-60135D01*
X72291Y-60135D01*
X72291Y-60519D01*
X72554Y-60519D01*
X72926Y-60608D01*
X72926Y-60608D01*
G37*
G54D15*
X72926Y-60608D02*
X72877Y-60608D01*
X72554Y-60684D01*
X72291Y-60684D01*
X72291Y-61068D01*
X70315Y-61068D01*
X70315Y-60135D01*
X72291Y-60135D01*
X72291Y-60519D01*
X72554Y-60519D01*
X72926Y-60608D01*
G54D10*
G36*
X78233Y-53016D02*
X78225Y-53042D01*
X78214Y-53055D01*
X76905Y-53720D01*
X76837Y-54519D01*
X76835Y-54528D01*
X76832Y-54540D01*
X76830Y-54568D01*
X76829Y-54571D01*
X76629Y-55390D01*
X76628Y-55394D01*
X76300Y-56170D01*
X76298Y-56174D01*
X75849Y-56891D01*
X75848Y-56894D01*
X75291Y-57534D01*
X75289Y-57537D01*
X74637Y-58083D01*
X74634Y-58085D01*
X73904Y-58525D01*
X73900Y-58526D01*
X73107Y-58848D01*
X73104Y-58849D01*
X72271Y-59046D01*
X72267Y-59047D01*
X71459Y-59110D01*
X71442Y-59104D01*
X71439Y-59100D01*
X70315Y-59100D01*
X70315Y-58679D01*
X71503Y-58679D01*
X71503Y-58684D01*
X72252Y-58631D01*
X73073Y-58448D01*
X73852Y-58150D01*
X74573Y-57744D01*
X75214Y-57238D01*
X75763Y-56646D01*
X76204Y-55981D01*
X76527Y-55262D01*
X76720Y-54521D01*
X76783Y-53721D01*
X75472Y-53056D01*
X75462Y-53042D01*
X75453Y-53017D01*
X75455Y-53000D01*
X76267Y-51483D01*
X76287Y-51472D01*
X77400Y-51472D01*
X77420Y-51483D01*
X78231Y-53000D01*
X78233Y-53016D01*
X78233Y-53016D01*
G37*
G54D15*
X78233Y-53016D02*
X78225Y-53042D01*
X78214Y-53055D01*
X76905Y-53720D01*
X76837Y-54519D01*
X76835Y-54528D01*
X76832Y-54540D01*
X76830Y-54568D01*
X76829Y-54571D01*
X76629Y-55390D01*
X76628Y-55394D01*
X76300Y-56170D01*
X76298Y-56174D01*
X75849Y-56891D01*
X75848Y-56894D01*
X75291Y-57534D01*
X75289Y-57537D01*
X74637Y-58083D01*
X74634Y-58085D01*
X73904Y-58525D01*
X73900Y-58526D01*
X73107Y-58848D01*
X73104Y-58849D01*
X72271Y-59046D01*
X72267Y-59047D01*
X71459Y-59110D01*
X71442Y-59104D01*
X71439Y-59100D01*
X70315Y-59100D01*
X70315Y-58679D01*
X71503Y-58679D01*
X71503Y-58684D01*
X72252Y-58631D01*
X73073Y-58448D01*
X73852Y-58150D01*
X74573Y-57744D01*
X75214Y-57238D01*
X75763Y-56646D01*
X76204Y-55981D01*
X76527Y-55262D01*
X76720Y-54521D01*
X76783Y-53721D01*
X75472Y-53056D01*
X75462Y-53042D01*
X75453Y-53017D01*
X75455Y-53000D01*
X76267Y-51483D01*
X76287Y-51472D01*
X77400Y-51472D01*
X77420Y-51483D01*
X78231Y-53000D01*
X78233Y-53016D01*
G54D10*
G36*
X72926Y-57143D02*
X72877Y-57143D01*
X72554Y-57220D01*
X72291Y-57220D01*
X72291Y-57604D01*
X70315Y-57604D01*
X70315Y-56671D01*
X72291Y-56671D01*
X72291Y-57055D01*
X72553Y-57055D01*
X72926Y-57143D01*
X72926Y-57143D01*
G37*
G54D15*
X72926Y-57143D02*
X72877Y-57143D01*
X72554Y-57220D01*
X72291Y-57220D01*
X72291Y-57604D01*
X70315Y-57604D01*
X70315Y-56671D01*
X72291Y-56671D01*
X72291Y-57055D01*
X72553Y-57055D01*
X72926Y-57143D01*
M02*
