G04 (created by PCBNEW (2013-june-11)-stable) date Mon 30 Oct 2017 03:43:58 PM CET*
%MOIN*%
G04 Gerber Fmt 3.4, Leading zero omitted, Abs format*
%FSLAX34Y34*%
G01*
G70*
G90*
G04 APERTURE LIST*
%ADD10C,0.00590551*%
%ADD11R,0.19685X0.0589*%
%ADD12C,0.038189*%
%ADD13C,0.01*%
%ADD14C,0.0011811*%
G04 APERTURE END LIST*
G54D10*
G54D11*
X71292Y-57272D03*
X71292Y-60501D03*
G54D12*
X72731Y-60602D03*
X72731Y-57137D03*
G54D13*
X71292Y-57272D02*
X71425Y-57139D01*
X71425Y-57139D02*
X72731Y-57137D01*
G54D10*
G36*
X89251Y-61258D02*
X87103Y-61258D01*
X86396Y-60099D01*
X85674Y-58998D01*
X84951Y-58387D01*
X84229Y-58011D01*
X83507Y-57804D01*
X82784Y-57738D01*
X82062Y-57804D01*
X81340Y-58011D01*
X80617Y-58387D01*
X79895Y-58998D01*
X79173Y-60099D01*
X78465Y-61258D01*
X70315Y-61258D01*
X70315Y-46355D01*
X78465Y-46355D01*
X79172Y-47514D01*
X79895Y-48615D01*
X80617Y-49226D01*
X81340Y-49601D01*
X82062Y-49809D01*
X82784Y-49876D01*
X83507Y-49809D01*
X84229Y-49601D01*
X84951Y-49226D01*
X85674Y-48615D01*
X86396Y-47514D01*
X87104Y-46355D01*
X89251Y-46355D01*
X89251Y-49895D01*
X88551Y-50800D01*
X88550Y-50802D01*
X87831Y-51508D01*
X87829Y-51510D01*
X87111Y-52045D01*
X87108Y-52046D01*
X86390Y-52454D01*
X86388Y-52454D01*
X85669Y-52764D01*
X85667Y-52765D01*
X84948Y-53000D01*
X84946Y-53000D01*
X84226Y-53179D01*
X84224Y-53179D01*
X83505Y-53315D01*
X83505Y-53315D01*
X82784Y-53419D01*
X82783Y-53419D01*
X82063Y-53497D01*
X82062Y-53497D01*
X81342Y-53557D01*
X81341Y-53557D01*
X80620Y-53602D01*
X79899Y-53637D01*
X79178Y-53663D01*
X79177Y-53663D01*
X78456Y-53683D01*
X77735Y-53698D01*
X77014Y-53709D01*
X76313Y-53718D01*
X76292Y-53702D01*
X76118Y-53135D01*
X75626Y-52642D01*
X74954Y-52462D01*
X74281Y-52642D01*
X73790Y-53135D01*
X73609Y-53798D01*
X73609Y-53816D01*
X73790Y-54479D01*
X74281Y-54971D01*
X74954Y-55151D01*
X75626Y-54971D01*
X76118Y-54479D01*
X76292Y-53911D01*
X76313Y-53896D01*
X77014Y-53904D01*
X77735Y-53916D01*
X78456Y-53931D01*
X79178Y-53951D01*
X79899Y-53977D01*
X80620Y-54011D01*
X80621Y-54011D01*
X81342Y-54057D01*
X82060Y-54115D01*
X82061Y-54116D01*
X82784Y-54195D01*
X82784Y-54195D01*
X83505Y-54298D01*
X83505Y-54298D01*
X84225Y-54433D01*
X84226Y-54434D01*
X84946Y-54613D01*
X84947Y-54614D01*
X85667Y-54849D01*
X85668Y-54850D01*
X86387Y-55158D01*
X86389Y-55159D01*
X87108Y-55567D01*
X87111Y-55568D01*
X87829Y-56105D01*
X87831Y-56106D01*
X88550Y-56812D01*
X88552Y-56814D01*
X89251Y-57717D01*
X89251Y-61258D01*
X89251Y-61258D01*
G37*
G54D14*
X89251Y-61258D02*
X87103Y-61258D01*
X86396Y-60099D01*
X85674Y-58998D01*
X84951Y-58387D01*
X84229Y-58011D01*
X83507Y-57804D01*
X82784Y-57738D01*
X82062Y-57804D01*
X81340Y-58011D01*
X80617Y-58387D01*
X79895Y-58998D01*
X79173Y-60099D01*
X78465Y-61258D01*
X70315Y-61258D01*
X70315Y-46355D01*
X78465Y-46355D01*
X79172Y-47514D01*
X79895Y-48615D01*
X80617Y-49226D01*
X81340Y-49601D01*
X82062Y-49809D01*
X82784Y-49876D01*
X83507Y-49809D01*
X84229Y-49601D01*
X84951Y-49226D01*
X85674Y-48615D01*
X86396Y-47514D01*
X87104Y-46355D01*
X89251Y-46355D01*
X89251Y-49895D01*
X88551Y-50800D01*
X88550Y-50802D01*
X87831Y-51508D01*
X87829Y-51510D01*
X87111Y-52045D01*
X87108Y-52046D01*
X86390Y-52454D01*
X86388Y-52454D01*
X85669Y-52764D01*
X85667Y-52765D01*
X84948Y-53000D01*
X84946Y-53000D01*
X84226Y-53179D01*
X84224Y-53179D01*
X83505Y-53315D01*
X83505Y-53315D01*
X82784Y-53419D01*
X82783Y-53419D01*
X82063Y-53497D01*
X82062Y-53497D01*
X81342Y-53557D01*
X81341Y-53557D01*
X80620Y-53602D01*
X79899Y-53637D01*
X79178Y-53663D01*
X79177Y-53663D01*
X78456Y-53683D01*
X77735Y-53698D01*
X77014Y-53709D01*
X76313Y-53718D01*
X76292Y-53702D01*
X76118Y-53135D01*
X75626Y-52642D01*
X74954Y-52462D01*
X74281Y-52642D01*
X73790Y-53135D01*
X73609Y-53798D01*
X73609Y-53816D01*
X73790Y-54479D01*
X74281Y-54971D01*
X74954Y-55151D01*
X75626Y-54971D01*
X76118Y-54479D01*
X76292Y-53911D01*
X76313Y-53896D01*
X77014Y-53904D01*
X77735Y-53916D01*
X78456Y-53931D01*
X79178Y-53951D01*
X79899Y-53977D01*
X80620Y-54011D01*
X80621Y-54011D01*
X81342Y-54057D01*
X82060Y-54115D01*
X82061Y-54116D01*
X82784Y-54195D01*
X82784Y-54195D01*
X83505Y-54298D01*
X83505Y-54298D01*
X84225Y-54433D01*
X84226Y-54434D01*
X84946Y-54613D01*
X84947Y-54614D01*
X85667Y-54849D01*
X85668Y-54850D01*
X86387Y-55158D01*
X86389Y-55159D01*
X87108Y-55567D01*
X87111Y-55568D01*
X87829Y-56105D01*
X87831Y-56106D01*
X88550Y-56812D01*
X88552Y-56814D01*
X89251Y-57717D01*
X89251Y-61258D01*
M02*
