%FSLAX24Y24*%
%MOMM*%
%SFA1B1*%

%IPPOS*%
%ADD13C,0.999998*%
%ADD14R,2.847994X37.979924*%
%ADD15C,0.127000*%
%ADD16C,0.253999*%
%ADD17C,0.507999*%
%ADD18C,1.015998*%
%ADD19C,2.031996*%
%LNvivaldi-1*%
%LPD*%
G54D13*
X694999Y574999D03*
Y662999D03*
G54D14*
X647239Y747599D03*
G54D15*
X1114644Y847736D02*
X1096484Y824262D01*
X1078225Y806343*
X1059972Y792722*
X1041707Y782379*
X1023445Y774524*
X1005174Y768550*
X986894Y764000*
X968605Y760556*
X950289Y757928*
X931991Y755931*
X913687Y754422*
X895379Y753273*
X877059Y752394*
X858747Y751734*
X840432Y751224*
X822116Y750844*
X803799Y750554*
X785948Y750330*
X781490Y764926*
X768808Y777609*
X751479Y782247*
X734151Y777609*
X721471Y764919*
X716844Y747874*
Y747305*
X721471Y730260*
X734151Y717580*
X751479Y712932*
X768808Y717580*
X781490Y730252*
X785948Y744849*
X803802Y744635*
X822119Y744344*
X840436Y743964*
X858752Y743455*
X877067Y742795*
X895389Y741915*
X913699Y740766*
X932007Y739257*
X950311Y737258*
X968605Y734633*
X986894Y731189*
X1005174Y726639*
X1023445Y720665*
X1041707Y712810*
X1059972Y702466*
X1078225Y688846*
X1096484Y670917*
X1114644Y647452*
Y558304*
X1060676*
X1042531Y588020*
X1024150Y616055*
X1005705Y631660*
X987265Y641232*
X968827Y646526*
X950379Y648227*
X931942Y646526*
X913503Y641232*
X895064Y631660*
X876609Y616055*
X858238Y588037*
X840093Y558304*
X662114*
Y936884*
X840093*
X858227Y907169*
X876609Y879134*
X895064Y863529*
X913503Y853957*
X931942Y848663*
X950379Y846952*
X968827Y848663*
X987265Y853957*
X1005705Y863529*
X1024150Y879134*
X1042520Y907151*
X1060676Y936884*
X1114644*
Y847736*
G54D16*
X1113374Y848170D02*
X1095532Y825108D01*
X1077397Y807309*
X1059276Y793788*
X1041141Y783518*
X1022995Y775713*
X1004822Y769771*
X986623Y765241*
X968397Y761809*
X950130Y759188*
X931869Y757195*
X913583Y755688*
X895300Y754541*
X876998Y753662*
X858701Y753003*
X840396Y752494*
X822090Y752114*
X803779Y751824*
X786884Y751612*
X782612Y765600*
X769465Y778747*
X751479Y783561*
X733493Y778747*
X720333Y765577*
X715574Y748043*
Y747135*
X720334Y729601*
X733493Y716442*
X751479Y711617*
X769465Y716441*
X782612Y729578*
X786884Y743567*
X803787Y743365*
X822099Y743074*
X840410Y742695*
X858716Y742185*
X877021Y741526*
X895328Y740646*
X913620Y739498*
X931886Y737992*
X950151Y735998*
X968397Y733380*
X986623Y729947*
X1004822Y725417*
X1022995Y719475*
X1041141Y711670*
X1059276Y701401*
X1077397Y687880*
X1095532Y670071*
X1113374Y647018*
Y559574*
X1061388*
X1043604Y588699*
X1025111Y616905*
X1006417Y632722*
X987738Y642418*
X969063Y647780*
X950379Y649502*
X931706Y647780*
X913030Y642418*
X894352Y632722*
X875648Y616905*
X857165Y588716*
X839380Y559574*
X663384*
Y935614*
X839380*
X857154Y906489*
X875648Y878283*
X894352Y862467*
X913030Y852771*
X931705Y847409*
X950379Y845676*
X969063Y847409*
X987738Y852771*
X1006417Y862467*
X1025111Y878283*
X1043594Y906472*
X1061388Y935614*
X1113374*
Y848170*
G54D17*
X1110834Y849038D02*
X1093629Y826799D01*
X1075740Y809242*
X1057885Y795919*
X1040010Y785797*
X1022097Y778092*
X1004120Y772214*
X986080Y767723*
X967982Y764315*
X949811Y761708*
X931627Y759723*
X913399Y758221*
X895159Y757076*
X876891Y756200*
X858609Y755541*
X840325Y755033*
X822037Y754653*
X803739Y754363*
X788757Y754176*
X784856Y766948*
X770780Y781025*
X751479Y786190*
X732178Y781025*
X718059Y766895*
X713034Y748382*
Y746797*
X718059Y728283*
X732178Y714164*
X751479Y708987*
X770780Y714164*
X784856Y728229*
X788757Y741004*
X803756Y740825*
X822059Y740535*
X840357Y740155*
X858645Y739646*
X876914Y738988*
X895187Y738110*
X913436Y736964*
X931644Y735463*
X949833Y733477*
X967982Y730873*
X986080Y727465*
X1004120Y722974*
X1022097Y717097*
X1040010Y709392*
X1057885Y699269*
X1075740Y685947*
X1093629Y668379*
X1110834Y646150*
Y562114*
X1062813*
X1045751Y590058*
X1027032Y618606*
X1007839Y634845*
X988683Y644789*
X969534Y650287*
X950379Y652053*
X931234Y650287*
X912085Y644789*
X892929Y634845*
X873726Y618606*
X855018Y590075*
X837954Y562114*
X665924*
Y933074*
X837954*
X855007Y905131*
X873726Y876582*
X892929Y860343*
X912085Y850400*
X931233Y844902*
X950379Y843125*
X969535Y844902*
X988683Y850400*
X1007839Y860344*
X1027032Y876582*
X1045740Y905113*
X1062813Y933074*
X1110834*
Y849038*
G54D18*
X1105754Y850774D02*
X1089823Y830181D01*
X1072426Y813108*
X1055104Y800182*
X1037748Y790354*
X1020300Y782849*
X1002715Y777099*
X984996Y772688*
X967150Y769328*
X949175Y766749*
X931143Y764781*
X913031Y763288*
X894878Y762149*
X876678Y761275*
X858447Y760618*
X840202Y760111*
X821932Y759732*
X803658Y759443*
X792502Y759303*
X789345Y769644*
X773408Y785580*
X751479Y791449*
X729548Y785580*
X713510Y769529*
X707954Y749058*
Y746120*
X713511Y725647*
X729548Y709610*
X751479Y703728*
X773408Y709609*
X789344Y725532*
X792504Y735879*
X803695Y735745*
X821978Y735455*
X840234Y735077*
X858483Y734568*
X876701Y733912*
X894906Y733038*
X913068Y731897*
X931159Y730406*
X949196Y728436*
X967150Y725860*
X984996Y722500*
X1002715Y718089*
X1020300Y712339*
X1037748Y704835*
X1055104Y695006*
X1072426Y682081*
X1089823Y664997*
X1105754Y644414*
Y567194*
X1065663*
X1050044Y592775*
X1030876Y622008*
X1010686Y639091*
X990573Y649531*
X970476Y655301*
X950379Y657154*
X930292Y655301*
X910195Y649531*
X890084Y639091*
X869882Y622008*
X850724Y592791*
X835103Y567194*
X671003*
Y927994*
X835103*
X850714Y902414*
X869882Y873180*
X890084Y856097*
X910195Y845657*
X930289Y839887*
X950379Y838023*
X970478Y839887*
X990573Y845657*
X1010686Y856097*
X1030876Y873180*
X1050033Y902396*
X1065663Y927994*
X1105754*
Y850774*
G54D19*
X1095594Y854245D02*
X1082212Y836947D01*
X1065800Y820840*
X1049540Y808707*
X1033224Y799468*
X1016707Y792363*
X999906Y786870*
X982827Y782618*
X965488Y779353*
X947902Y776830*
X930174Y774895*
X912296Y773422*
X894316Y772293*
X876251Y771426*
X858122Y770773*
X839955Y770268*
X821746Y769890*
X803514Y769601*
X799994Y769558*
X798321Y775035*
X778666Y794690*
X751479Y801966*
X724288Y794689*
X704412Y774798*
X697794Y750413*
Y744765*
X704414Y720375*
X724287Y700502*
X751478Y693208*
X778666Y700501*
X798320Y720139*
X799996Y725628*
X803554Y725586*
X821792Y725297*
X839987Y724919*
X858159Y724413*
X876274Y723761*
X894344Y722893*
X912332Y721763*
X930190Y720291*
X947922Y718355*
X965488Y715834*
X982827Y712570*
X999906Y708318*
X1016707Y702825*
X1033224Y695720*
X1049540Y686480*
X1065798Y674349*
X1082212Y658231*
X1095594Y640941*
Y577353*
X1071364*
X1058630Y598209*
X1038564Y628812*
X1016378Y647583*
X994352Y659016*
X972361Y665331*
X950378Y667357*
X928407Y665331*
X906415Y659016*
X884392Y647584*
X862195Y628813*
X842138Y598224*
X829401Y577353*
X681163*
Y917834*
X829401*
X842127Y896981*
X862195Y866374*
X884392Y847604*
X906415Y836172*
X928401Y829858*
X950378Y827820*
X972366Y829858*
X994352Y836172*
X1016378Y847605*
X1038564Y866376*
X1058619Y896961*
X1071364Y917834*
X1095594*
Y854245*
X681482Y587248D02*
X830834D01*
X1067562D02*
X1095502D01*
X681482Y607314D02*
X845312D01*
X1053084D02*
X1095502D01*
X681482Y627380D02*
X859790D01*
X1043432D02*
X1095502D01*
X681482Y647446D02*
X883920D01*
X1019302D02*
X1086612D01*
X681482Y667512D02*
X1072134D01*
X681482Y687578D02*
X1043178D01*
X681482Y707644D02*
X715010D01*
X787654D02*
X999744D01*
X681482Y727710D02*
X700532D01*
X681482Y747776D02*
X695706D01*
X681482Y767842D02*
X700532D01*
X681482Y787908D02*
X715010D01*
X787654D02*
X999744D01*
X681482Y807974D02*
X1048004D01*
X681482Y828040D02*
X946658D01*
X956564D02*
X1072134D01*
X681482Y848106D02*
X879094D01*
X1019302D02*
X1086612D01*
X681482Y868172D02*
X859790D01*
X1043432D02*
X1095502D01*
X681482Y888238D02*
X845312D01*
X1057910D02*
X1095502D01*
X681482Y908304D02*
X830834D01*
X1067562D02*
X1095502D01*
M02*